<svg id="Layer_1" data-name="Layer 1" xmlns="http://www.w3.org/2000/svg" viewBox="0 0 245.05 181.41"><defs><style>.cls-1{fill:#3c8fcd;}.cls-2{fill:#8ec9ee;}.cls-3{fill:#f37532;}</style></defs><title>Logo Revamped</title><rect class="cls-1" x="155.01" y="34.53" width="24.26" height="72.02" rx="12" ry="12"/><rect class="cls-2" x="57.21" y="34.8" width="86.39" height="25.58" rx="12" ry="12"/><rect class="cls-3" x="361.36" y="156.52" width="23.51" height="51.77" rx="5.81" ry="5.81" transform="translate(-356.55 -8.49) rotate(-21.1)"/><path class="cls-2" d="M414.91,299.95h0a12,12,0,0,1-15.29-7.36l-33.3-95.12L389,189.54l33.3,95.12A12,12,0,0,1,414.91,299.95Z" transform="translate(-315.9 -155.07)"/><rect class="cls-2" x="83.74" y="122.09" width="65.6" height="24" rx="12" ry="12"/><path class="cls-1" d="M548.16,214.45H488.84A14.81,14.81,0,0,1,474,199.64h0a10.77,10.77,0,0,1,10.77-10.77h63.35A12.79,12.79,0,0,1,561,201.66h0A12.79,12.79,0,0,1,548.16,214.45Z" transform="translate(-315.9 -155.07)"/><rect class="cls-1" x="155.76" y="82.55" width="80.42" height="24" rx="12" ry="12"/><rect class="cls-1" x="215.81" y="83.18" width="24" height="62.79" rx="12" ry="12"/><path class="cls-1" d="M482.74,277.89h60.58a12,12,0,0,1,12,12h0a12,12,0,0,1-12,12H483.09a12.17,12.17,0,0,1-12.17-12.17h0A11.83,11.83,0,0,1,482.74,277.89Z" transform="translate(-315.9 -155.07)"/><rect class="cls-3" x="316.06" y="156.16" width="60.98" height="21.95" rx="6.98" ry="6.98" transform="translate(-323.32 -138.73) rotate(-2.67)"/><circle class="cls-3" cx="114.54" cy="168.92" r="12.49"/><circle class="cls-3" cx="197.59" cy="168.92" r="12.49"/></svg>